<?xml version="1.0" encoding="UTF-8"?>
<svg xmlns="http://www.w3.org/2000/svg" width="520" height="560" viewBox="0 0 520 560">
  <style>
    text { font-family: monospace; font-size: 11px; fill: #333; }
    .name { font-size: 12px; font-weight: bold; }
    .abstract { font-style: italic; }
    .method { font-size: 10px; }
    .override { font-size: 10px; fill: #0078d4; }
    .note { font-size: 10px; fill: #666; font-style: italic; }
  </style>
  <defs>
    <marker id="tri" markerWidth="12" markerHeight="10" refX="6" refY="5" orient="auto">
      <polygon points="0 0, 12 5, 0 10" fill="none" stroke="#666" stroke-width="1.2"/>
    </marker>
  </defs>

  <!-- Edit base -->
  <rect x="30" y="10" width="230" height="75" rx="5" fill="#f5f5f5" stroke="#666" stroke-width="1.5"/>
  <text x="145" y="28" class="name abstract" text-anchor="middle">Edit (abstract)</text>
  <line x1="30" y1="34" x2="260" y2="34" stroke="#ccc"/>
  <text x="40" y="48" class="method">transformSelector(sel): Selector</text>
  <text x="40" y="60" class="method">transform(prior): Edit</text>
  <text x="40" y="72" class="method">transformLaterConcurrentEdit(c): Edit</text>
  <text x="40" y="82" class="note">  default: c.transform(this)</text>

  <!-- CopyEdit (extends Edit directly) -->
  <rect x="310" y="10" width="190" height="55" rx="5" fill="#fce8e6" stroke="#ea4335" stroke-width="1.5"/>
  <text x="405" y="28" class="name" text-anchor="middle" fill="#ea4335">CopyEdit</text>
  <line x1="310" y1="34" x2="500" y2="34" stroke="#ea4335" stroke-opacity="0.3"/>
  <text x="320" y="48" class="override">target + source selectors</text>
  <text x="320" y="60" class="override">mirrors edits to copy target</text>

  <!-- Arrow Edit → NoOp -->
  <line x1="145" y1="85" x2="145" y2="105" stroke="#666" stroke-width="1.2" marker-end="url(#tri)"/>

  <!-- NoOpOnRemovedTargetEdit -->
  <rect x="30" y="110" width="230" height="30" rx="5" fill="#f5f5f5" stroke="#666" stroke-width="1.2"/>
  <text x="145" y="130" class="name abstract" text-anchor="middle">NoOpOnRemovedTargetEdit</text>

  <!-- Structural edits row 1 -->
  <line x1="80" y1="140" x2="80" y2="170" stroke="#666" stroke-width="1.2" marker-end="url(#tri)"/>
  <line x1="210" y1="140" x2="210" y2="170" stroke="#666" stroke-width="1.2" marker-end="url(#tri)"/>
  <line x1="210" y1="140" x2="380" y2="170" stroke="#666" stroke-width="1.2" marker-end="url(#tri)"/>

  <!-- UpdateTagEdit -->
  <rect x="10" y="175" width="140" height="50" rx="5" fill="#e8f0fe" stroke="#0078d4" stroke-width="1.5"/>
  <text x="80" y="193" class="name" text-anchor="middle" fill="#0078d4">UpdateTagEdit</text>
  <line x1="10" y1="199" x2="150" y2="199" stroke="#0078d4" stroke-opacity="0.3"/>
  <text x="20" y="212" class="override">transformSelector ✦</text>
  <text x="20" y="222" class="override">transformLater... ✦</text>

  <!-- WrapRecordEdit -->
  <rect x="160" y="175" width="140" height="50" rx="5" fill="#e8f0fe" stroke="#0078d4" stroke-width="1.5"/>
  <text x="230" y="193" class="name" text-anchor="middle" fill="#0078d4">WrapRecordEdit</text>
  <line x1="160" y1="199" x2="300" y2="199" stroke="#0078d4" stroke-opacity="0.3"/>
  <text x="170" y="212" class="override">transformSelector ✦</text>
  <text x="170" y="222" class="override">transformLater... ✦</text>

  <!-- Data edits (right) -->
  <rect x="320" y="175" width="185" height="50" rx="5" fill="#e6f4ea" stroke="#34a853" stroke-width="1.5"/>
  <text x="412" y="193" class="name" text-anchor="middle" fill="#34a853">RecordAddEdit, SetEdit ...</text>
  <line x1="320" y1="199" x2="505" y2="199" stroke="#34a853" stroke-opacity="0.3"/>
  <text x="330" y="215" class="note">transformSelector → identity</text>

  <!-- Structural edits row 2 -->
  <line x1="80" y1="140" x2="80" y2="245" stroke="#666" stroke-width="1" stroke-dasharray="4,3"/>
  <line x1="210" y1="140" x2="210" y2="245" stroke="#666" stroke-width="1" stroke-dasharray="4,3"/>
  <line x1="210" y1="140" x2="380" y2="245" stroke="#666" stroke-width="1" stroke-dasharray="4,3"/>

  <!-- WrapListEdit -->
  <rect x="10" y="250" width="140" height="50" rx="5" fill="#e8f0fe" stroke="#0078d4" stroke-width="1.5"/>
  <text x="80" y="268" class="name" text-anchor="middle" fill="#0078d4">WrapListEdit</text>
  <line x1="10" y1="274" x2="150" y2="274" stroke="#0078d4" stroke-opacity="0.3"/>
  <text x="20" y="287" class="override">transformSelector ✦</text>
  <text x="20" y="297" class="override">transformLater... ✦</text>

  <!-- RenameFieldEdit -->
  <rect x="160" y="250" width="140" height="40" rx="5" fill="#e8f0fe" stroke="#0078d4" stroke-width="1.5"/>
  <text x="230" y="268" class="name" text-anchor="middle" fill="#0078d4">RenameFieldEdit</text>
  <line x1="160" y1="274" x2="300" y2="274" stroke="#0078d4" stroke-opacity="0.3"/>
  <text x="170" y="287" class="override">transformSelector ✦</text>

  <!-- DeleteEdit -->
  <rect x="320" y="250" width="140" height="40" rx="5" fill="#e8f0fe" stroke="#0078d4" stroke-width="1.5"/>
  <text x="390" y="268" class="name" text-anchor="middle" fill="#0078d4">DeleteEdit</text>
  <line x1="320" y1="274" x2="460" y2="274" stroke="#0078d4" stroke-opacity="0.3"/>
  <text x="330" y="287" class="override">transformSelector ✦</text>

  <!-- ListInsertEdit -->
  <line x1="80" y1="140" x2="120" y2="330" stroke="#666" stroke-width="1.2" marker-end="url(#tri)"/>
  <rect x="10" y="335" width="220" height="40" rx="5" fill="#fff4e5" stroke="#f5a623" stroke-width="1.5"/>
  <text x="120" y="353" class="name abstract" text-anchor="middle" fill="#f5a623">ListInsertEdit (abstract)</text>
  <text x="120" y="368" class="method" text-anchor="middle">rewriteInsertedNode(target, rewrite)</text>

  <!-- PushBack, PushFront -->
  <line x1="60" y1="375" x2="60" y2="395" stroke="#666" stroke-width="1.2" marker-end="url(#tri)"/>
  <line x1="180" y1="375" x2="180" y2="395" stroke="#666" stroke-width="1.2" marker-end="url(#tri)"/>

  <rect x="10" y="400" width="100" height="40" rx="5" fill="#fff4e5" stroke="#f5a623" stroke-width="1.2"/>
  <text x="60" y="418" class="name" text-anchor="middle" fill="#f5a623">PushBackEdit</text>
  <text x="60" y="435" class="override" text-anchor="middle">transformLater... ✦</text>

  <rect x="130" y="400" width="100" height="40" rx="5" fill="#fff4e5" stroke="#f5a623" stroke-width="1.2"/>
  <text x="180" y="418" class="name" text-anchor="middle" fill="#f5a623">PushFrontEdit</text>
  <text x="180" y="435" class="override" text-anchor="middle">transformLater... ✦</text>

  <!-- Legend -->
  <text x="300" y="360" class="note">✦ = overrides base method</text>
  <rect x="295" y="370" width="12" height="12" fill="#e8f0fe" stroke="#0078d4"/>
  <text x="312" y="380" class="note">structural (changes paths)</text>
  <rect x="295" y="388" width="12" height="12" fill="#e6f4ea" stroke="#34a853"/>
  <text x="312" y="398" class="note">data (identity transform)</text>
  <rect x="295" y="406" width="12" height="12" fill="#fff4e5" stroke="#f5a623"/>
  <text x="312" y="416" class="note">insert (rewritable payload)</text>
  <rect x="295" y="424" width="12" height="12" fill="#fce8e6" stroke="#ea4335"/>
  <text x="312" y="434" class="note">copy (two selectors, mirroring)</text>
</svg>
